<?xml version="1.0" standalone="no"?>
<!DOCTYPE svg PUBLIC "-//W3C//DTD SVG 20010904//EN"
 "http://www.w3.org/TR/2001/REC-SVG-20010904/DTD/svg10.dtd">
<svg version="1.0" xmlns="http://www.w3.org/2000/svg"
 width="325.000000pt" height="325.000000pt" viewBox="0 0 325.000000 325.000000"
 preserveAspectRatio="xMidYMid meet">
<metadata>
Created by potrace 1.11, written by Peter Selinger 2001-2013
</metadata>
<g transform="translate(0.000000,325.000000) scale(0.100000,-0.100000)"
fill="#000000" stroke="none">
<path d="M1428 3215 c-1 -1 -34 -5 -72 -9 -38 -4 -79 -9 -90 -11 -12 -3 -32
-7 -46 -9 -355 -60 -754 -349 -970 -701 -104 -169 -192 -408 -216 -583 -37
-279 -20 -496 58 -742 40 -125 135 -322 190 -395 5 -5 33 -44 65 -85 266 -353
703 -612 1090 -646 122 -11 318 -5 365 11 7 2 29 6 48 9 68 11 93 17 189 47
555 177 926 505 1071 947 66 203 89 378 84 642 -1 102 -5 201 -8 220 -3 19 -8
58 -11 85 -14 115 -61 267 -120 386 -86 175 -178 287 -398 485 -55 49 -179
140 -230 168 -104 58 -280 117 -422 141 -16 3 -52 10 -80 15 -27 5 -72 12
-100 15 -52 7 -391 16 -397 10z m387 -106 c177 -28 276 -60 436 -139 164 -81
264 -154 409 -299 214 -215 362 -499 406 -776 3 -22 10 -60 15 -85 15 -78 3
-384 -20 -482 -54 -234 -132 -406 -271 -593 -226 -304 -520 -491 -879 -560
-53 -10 -171 -18 -253 -18 -573 4 -1138 353 -1388 858 -111 224 -150 394 -145
635 12 685 532 1298 1220 1439 55 11 114 22 130 24 65 7 283 5 340 -4z"/>
<path d="M1018 2429 c-14 -40 1 -1185 17 -1304 2 -16 7 -56 10 -88 11 -115 47
-227 73 -227 14 0 50 44 62 75 19 51 31 125 35 235 3 58 7 143 10 189 9 160
59 211 208 213 89 1 126 -7 197 -40 76 -36 199 -162 289 -297 122 -182 209
-280 302 -342 57 -37 146 -38 170 0 11 16 -9 82 -45 145 -19 34 -92 147 -163
251 -70 104 -142 216 -159 249 -49 93 -39 115 93 203 113 76 162 137 195 244
47 150 -21 347 -141 410 -33 17 -156 51 -215 60 -21 3 -48 7 -60 10 -55 12
-170 17 -507 22 -303 4 -367 3 -371 -8z m754 -219 c158 -33 230 -71 274 -145
63 -109 4 -213 -162 -283 -90 -38 -184 -52 -344 -53 -137 0 -216 11 -255 37
-48 31 -59 68 -62 204 -3 114 -1 130 20 170 15 31 34 51 60 64 75 36 304 39
469 6z"/>
</g>
</svg>
